<?xml version="1.0" encoding="utf-8"?>
<!-- Generator: Adobe Illustrator 25.4.1, SVG Export Plug-In . SVG Version: 6.00 Build 0)  -->
<svg version="1.1" id="Слой_1" xmlns="http://www.w3.org/2000/svg" xmlns:xlink="http://www.w3.org/1999/xlink" x="0px" y="0px"
	 viewBox="0 0 841.9 212.6" style="enable-background:new 0 0 841.9 212.6;" xml:space="preserve">
<style type="text/css">
	.st0{fill:#0876A6;}
	.st1{fill:#FFFFFF;}
	.st2{clip-path:url(#SVGID_00000047036376695307006900000016138758664721734576_);fill:#0876A6;}
</style>
<g>
	<g>
		<path class="st0" d="M310.3,73.2h-44.6v23.7h39.3v19.9h-39.3v41.9h-21V53.2h65.6V73.2z"/>
		<path class="st0" d="M339.8,158.7h-20.7V53.2h20.7V158.7z"/>
		<path class="st0" d="M415.8,158.7h-20.7v-10.5c-5.7,8-12.5,12-20.2,12c-7.3,0-13-2.4-17-7.1c-4-4.7-6.1-11.2-6.1-19.4V80.4h20.7
			v47.2c0,4.5,0.9,7.9,2.8,10.3c1.9,2.4,4.6,3.6,8.1,3.6c3.6,0,6.4-1.2,8.5-3.6c2-2.4,3.1-5.8,3.1-10.3V80.4h20.7V158.7z"/>
		<path class="st0" d="M449.6,72h-21.6V53.2h21.6V72z M449,158.7h-20.7V80.4H449V158.7z"/>
		<path class="st0" d="M530.5,158.7h-20.7v-10.8c-5.6,8.2-12.7,12.3-21.2,12.3c-8.4,0-15.5-3.4-21.3-10.2
			c-5.8-6.8-8.7-16.6-8.7-29.2v-2.3c0-12.7,2.9-22.4,8.6-29.2c5.7-6.8,12.9-10.2,21.3-10.2c8.3,0,15.3,3.8,21.2,11.4V53.2h20.7
			V158.7z M510,120.4v-1.8c0-6.5-1.5-11.8-4.4-15.7c-2.9-3.9-6.6-5.9-11-5.9s-8,2-11,5.9c-2.9,3.9-4.4,9.2-4.4,15.7v1.8
			c0,6.5,1.5,11.8,4.4,15.7c2.9,3.9,6.6,5.9,11,5.9s8-2,11-5.9C508.6,132.2,510,126.9,510,120.4z"/>
		<path class="st0" d="M583.2,123.5h-42.8v-20.2h42.8V123.5z"/>
		<path class="st0" d="M657.6,158.7h-62.4V53h21v85.6h41.3V158.7z"/>
		<path class="st0" d="M686.7,72H665V53.2h21.6V72z M686.1,158.7h-20.7V80.4h20.7V158.7z"/>
		<path class="st0" d="M762.6,158.7h-20.7v-47.2c0-4.5-1-7.9-2.9-10.3c-1.9-2.4-4.7-3.6-8.2-3.6c-3.6,0-6.4,1.2-8.5,3.6
			c-2,2.4-3.1,5.8-3.1,10.3v47.2h-20.7V80.4h20.7v10.5c5.7-8,12.5-12,20.2-12c7.4,0,13.1,2.4,17.2,7.1c4,4.7,6.1,11.2,6.1,19.4
			V158.7z"/>
		<path class="st0" d="M838.2,120.5c0,2.6-0.1,4.9-0.3,6.9h-46.8c1.8,10.4,7.5,15.6,16.9,15.6c6.1,0,11.9-2.4,17.4-7.3l9.4,12.6
			c-7.2,8-16.4,12-27.5,12c-10.6,0-19.4-3.7-26.4-11c-7-7.3-10.4-16.9-10.4-28.8v-1.5c0-11.6,3.2-21.2,9.7-28.7
			c6.5-7.5,14.7-11.3,24.6-11.3c10.7,0,18.9,3.9,24.7,11.6C835.3,98.4,838.2,108.4,838.2,120.5z M818.1,113.5
			c-0.5-5.5-1.9-9.7-4.2-12.9c-2.3-3.1-5.3-4.7-9.1-4.7c-3.8,0-6.9,1.5-9.3,4.5c-2.4,3-3.9,7.4-4.6,13H818.1z"/>
	</g>
	<path class="st0" d="M3.7,4.5v203.6h203.6V4.5H3.7z M47.3,187.4H25V103h22.3V187.4z M47.3,56.8v23.5H25V26.1h36.5
		C52.8,33.7,47.3,44.7,47.3,56.8z M74.1,187.4V103h26.7V80.3H74.1V56.8c0-9,7.6-16.2,17-16.2h28.6v112.2c0,14.4,7.5,27,18.8,34.6
		H74.1z M185.3,169.1h-22.8c-8.9,0-16.1-7.3-16.1-16.2V26.1h38.8V169.1z"/>
</g>
</svg>
